<svg width="73px" height="73px" viewBox="0 0 24 24" fill="none" xmlns="http://www.w3.org/2000/svg">

<style>
    @keyframes drawCheck {
        from {
            stroke-dasharray: 50;
            stroke-dashoffset: 50;
        }
        to {
            stroke-dasharray: 50;
            stroke-dashoffset: 0;
        }
    }

    #checkIcon {
        animation: drawCheck 1.5s ease forwards infinite;
    }
</style>

<g id="SVGRepo_bgCarrier" stroke-width="0"/>

<g id="SVGRepo_tracerCarrier" stroke-linecap="round" stroke-linejoin="round"/>

<g id="SVGRepo_iconCarrier"> 
    <path 
        opacity="0.6" 
        d="M22 12C22 17.5228 17.5228 22 12 22C6.47715 22 2 17.5228 2 12C2 6.47715 6.47715 2 12 2C17.5228 2 22 
            6.47715 22 12Z" 
        fill="#417d36"/> 

    <path id="checkIcon"
        d="M16.0303 8.96967C16.3232 9.26256 16.3232 9.73744 16.0303 10.0303L11.0303 15.0303C10.7374 15.3232 
            10.2626 15.3232 9.96967 15.0303L7.96967 13.0303C7.67678 12.7374 7.67678 12.2626 7.96967 11.9697C8.26256 
            11.6768 8.73744 11.6768 9.03033 11.9697L10.5 13.4393L12.7348 11.2045L14.9697 8.96967C15.2626 8.67678 
            15.7374 8.67678 16.0303 8.96967Z" 
        fill="none" stroke="white" stroke-width="1"/> 
</g>

</svg>
